<svg xmlns="http://www.w3.org/2000/svg" xmlns:xlink="http://www.w3.org/1999/xlink" width="500" zoomAndPan="magnify" viewBox="0 0 375 374.999991" height="500" preserveAspectRatio="xMidYMid meet" version="1.0"><defs><clipPath id="d73ece6f28"><path d="M 88 16.601562 L 287 16.601562 L 287 353 L 88 353 Z M 88 16.601562 " clip-rule="nonzero"/></clipPath></defs><path fill="#ffffff" d="M 219.035156 251.570312 C 219.035156 252.492188 218.992188 253.410156 218.902344 254.324219 C 218.8125 255.238281 218.675781 256.148438 218.496094 257.050781 C 218.316406 257.953125 218.09375 258.84375 217.828125 259.726562 C 217.558594 260.605469 217.25 261.472656 216.898438 262.320312 C 216.546875 263.171875 216.152344 264 215.71875 264.8125 C 215.285156 265.625 214.8125 266.414062 214.300781 267.179688 C 213.792969 267.941406 213.242188 268.679688 212.660156 269.390625 C 212.078125 270.101562 211.460938 270.785156 210.808594 271.433594 C 210.15625 272.085938 209.476562 272.703125 208.765625 273.285156 C 208.054688 273.871094 207.316406 274.417969 206.550781 274.929688 C 205.785156 275.441406 205 275.910156 204.1875 276.347656 C 203.375 276.78125 202.546875 277.171875 201.695312 277.523438 C 200.84375 277.875 199.980469 278.1875 199.097656 278.453125 C 198.21875 278.71875 197.328125 278.945312 196.425781 279.125 C 195.523438 279.300781 194.613281 279.4375 193.699219 279.527344 C 192.78125 279.617188 191.863281 279.664062 190.945312 279.664062 C 190.023438 279.664062 189.105469 279.617188 188.191406 279.527344 C 187.273438 279.4375 186.367188 279.300781 185.464844 279.125 C 184.5625 278.945312 183.671875 278.71875 182.789062 278.453125 C 181.910156 278.1875 181.042969 277.875 180.195312 277.523438 C 179.34375 277.171875 178.511719 276.78125 177.703125 276.347656 C 176.890625 275.910156 176.101562 275.441406 175.335938 274.929688 C 174.570312 274.417969 173.835938 273.871094 173.121094 273.285156 C 172.410156 272.703125 171.730469 272.085938 171.082031 271.433594 C 170.429688 270.785156 169.8125 270.101562 169.230469 269.390625 C 168.644531 268.679688 168.097656 267.941406 167.585938 267.179688 C 167.074219 266.414062 166.601562 265.625 166.167969 264.8125 C 165.734375 264 165.34375 263.171875 164.992188 262.320312 C 164.636719 261.472656 164.328125 260.605469 164.0625 259.726562 C 163.792969 258.84375 163.570312 257.953125 163.390625 257.050781 C 163.210938 256.148438 163.078125 255.238281 162.988281 254.324219 C 162.898438 253.410156 162.851562 252.492188 162.851562 251.570312 C 162.851562 250.652344 162.898438 249.734375 162.988281 248.816406 C 163.078125 247.902344 163.210938 246.992188 163.390625 246.089844 C 163.570312 245.1875 163.792969 244.296875 164.0625 243.414062 C 164.328125 242.535156 164.636719 241.671875 164.992188 240.820312 C 165.34375 239.96875 165.734375 239.140625 166.167969 238.328125 C 166.601562 237.515625 167.074219 236.726562 167.585938 235.964844 C 168.097656 235.199219 168.644531 234.460938 169.230469 233.75 C 169.8125 233.039062 170.429688 232.355469 171.082031 231.707031 C 171.730469 231.054688 172.410156 230.4375 173.121094 229.855469 C 173.835938 229.269531 174.570312 228.722656 175.335938 228.210938 C 176.101562 227.703125 176.890625 227.230469 177.703125 226.796875 C 178.511719 226.363281 179.34375 225.96875 180.195312 225.617188 C 181.042969 225.265625 181.910156 224.953125 182.789062 224.6875 C 183.671875 224.421875 184.5625 224.199219 185.464844 224.019531 C 186.367188 223.839844 187.273438 223.703125 188.191406 223.613281 C 189.105469 223.523438 190.023438 223.476562 190.945312 223.476562 C 191.863281 223.476562 192.78125 223.523438 193.699219 223.613281 C 194.613281 223.703125 195.523438 223.839844 196.425781 224.019531 C 197.328125 224.199219 198.21875 224.421875 199.097656 224.6875 C 199.980469 224.953125 200.84375 225.265625 201.695312 225.617188 C 202.546875 225.96875 203.375 226.363281 204.1875 226.796875 C 205 227.230469 205.785156 227.703125 206.550781 228.210938 C 207.316406 228.722656 208.054688 229.269531 208.765625 229.855469 C 209.476562 230.4375 210.15625 231.054688 210.808594 231.707031 C 211.460938 232.355469 212.078125 233.039062 212.660156 233.75 C 213.242188 234.460938 213.792969 235.199219 214.300781 235.964844 C 214.8125 236.726562 215.285156 237.515625 215.71875 238.328125 C 216.152344 239.140625 216.546875 239.96875 216.898438 240.820312 C 217.25 241.671875 217.558594 242.535156 217.828125 243.414062 C 218.09375 244.296875 218.316406 245.1875 218.496094 246.089844 C 218.675781 246.992188 218.8125 247.902344 218.902344 248.816406 C 218.992188 249.734375 219.035156 250.652344 219.035156 251.570312 Z M 219.035156 251.570312 " fill-opacity="1" fill-rule="nonzero"/><g clip-path="url(#d73ece6f28)"><path fill="#ffffff" d="M 187.105469 192.652344 C 190.941406 192.386719 194.769531 192.515625 198.582031 193.03125 C 202.394531 193.546875 206.113281 194.445312 209.742188 195.722656 C 213.371094 197 216.835938 198.632812 220.128906 200.617188 C 223.425781 202.601562 226.484375 204.902344 229.3125 207.511719 C 229.84375 207.96875 230.34375 208.4375 230.828125 208.921875 L 230.964844 209.058594 L 231.96875 210.015625 C 236.429688 214.402344 240.40625 219.304688 245.519531 222.976562 C 247.957031 224.75 250.597656 226.128906 253.441406 227.121094 C 256.476562 228.152344 259.578125 228.902344 262.746094 229.367188 C 268.28125 230.25 273.742188 229.929688 279.136719 228.410156 C 284.480469 226.800781 288.5 222.035156 286.390625 216.269531 C 284.09375 210.007812 281.207031 204.035156 277.730469 198.34375 C 274.253906 192.652344 270.257812 187.359375 265.734375 182.453125 C 262.683594 179.140625 259.425781 176.042969 255.957031 173.164062 C 252.492188 170.285156 248.851562 167.648438 245.035156 165.253906 C 241.21875 162.859375 237.257812 160.730469 233.160156 158.863281 C 229.058594 156.996094 224.851562 155.410156 220.539062 154.105469 L 220.144531 153.96875 C 220.601562 153.53125 221.082031 153.121094 221.585938 152.738281 C 231.601562 144.734375 241.625 136.753906 251.652344 128.789062 C 260.589844 121.671875 269.589844 114.613281 278.425781 107.375 C 285.527344 101.5625 287.847656 93.882812 285.574219 85.109375 C 281.609375 69.796875 263.503906 64.089844 250.847656 74.078125 C 230.785156 89.71875 210.789062 105.46875 190.867188 121.324219 C 189.851562 122.125 188.804688 122.839844 187.832031 123.707031 C 187.363281 124.007812 187.011719 123.839844 187.136719 123.296875 C 187.191406 123.132812 187.257812 122.976562 187.332031 122.824219 C 193.574219 109.925781 199.800781 97.035156 206.015625 84.152344 C 211.949219 71.890625 217.914062 59.644531 223.726562 47.320312 C 224.191406 46.359375 224.582031 45.367188 224.894531 44.347656 C 225.210938 43.328125 225.445312 42.289062 225.601562 41.234375 C 225.761719 40.179688 225.835938 39.117188 225.832031 38.050781 C 225.828125 36.984375 225.742188 35.921875 225.574219 34.867188 C 225.410156 33.8125 225.164062 32.777344 224.84375 31.757812 C 224.519531 30.742188 224.121094 29.753906 223.648438 28.796875 C 223.171875 27.839844 222.628906 26.925781 222.019531 26.050781 C 221.40625 25.175781 220.730469 24.355469 219.992188 23.582031 C 219.277344 22.792969 218.503906 22.058594 217.679688 21.382812 C 216.851562 20.707031 215.980469 20.097656 215.0625 19.554688 C 214.140625 19.011719 213.1875 18.539062 212.199219 18.136719 C 211.207031 17.738281 210.195312 17.414062 209.15625 17.167969 C 208.117188 16.921875 207.066406 16.753906 206.003906 16.664062 C 204.9375 16.574219 203.875 16.566406 202.808594 16.636719 C 201.742188 16.710938 200.691406 16.859375 199.648438 17.089844 C 198.605469 17.320312 197.585938 17.628906 196.589844 18.011719 C 190.519531 20.273438 186.574219 24.78125 183.796875 30.503906 C 171.828125 55.191406 159.828125 79.863281 147.796875 104.523438 C 147.234375 105.691406 146.613281 106.84375 146.019531 107.996094 C 145.953125 108.132812 145.84375 108.179688 145.699219 108.136719 C 145.554688 108.09375 145.488281 107.996094 145.503906 107.84375 C 145.503906 107.433594 145.503906 107.164062 145.597656 106.769531 C 146.445312 98.34375 147.492188 89.953125 148.359375 81.527344 C 149 77.503906 149.253906 73.457031 149.117188 69.386719 C 148.992188 68.128906 148.757812 66.890625 148.417969 65.675781 C 148.078125 64.457031 147.636719 63.277344 147.089844 62.140625 C 146.546875 61 145.910156 59.914062 145.175781 58.882812 C 144.441406 57.855469 143.625 56.894531 142.726562 56.007812 C 141.828125 55.121094 140.859375 54.316406 139.820312 53.597656 C 138.78125 52.878906 137.6875 52.253906 136.539062 51.722656 C 135.390625 51.195312 134.207031 50.765625 132.988281 50.441406 C 131.765625 50.117188 130.523438 49.902344 129.265625 49.792969 C 127.964844 49.691406 126.664062 49.707031 125.367188 49.839844 C 124.070312 49.972656 122.792969 50.222656 121.542969 50.585938 C 120.289062 50.953125 119.082031 51.429688 117.914062 52.015625 C 116.75 52.601562 115.648438 53.289062 114.605469 54.078125 C 113.566406 54.863281 112.605469 55.738281 111.722656 56.699219 C 110.84375 57.664062 110.054688 58.695312 109.363281 59.804688 C 108.671875 60.910156 108.085938 62.066406 107.601562 63.28125 C 107.121094 64.492188 106.753906 65.738281 106.5 67.019531 C 105.164062 75.167969 104.421875 83.410156 103.464844 91.636719 C 101.945312 105.1875 100.613281 118.757812 99.140625 132.324219 C 97.441406 148.078125 95.679688 163.832031 93.949219 179.585938 C 92.644531 191.636719 91.519531 203.71875 90.019531 215.738281 C 88.0625 230.941406 87.613281 246.1875 88.667969 261.480469 C 89.503906 272.296875 92.222656 282.617188 96.816406 292.441406 C 108.414062 317.652344 127.066406 335.664062 152.851562 346.03125 C 158.894531 348.386719 165.105469 350.140625 171.488281 351.285156 C 177.875 352.433594 184.308594 352.953125 190.792969 352.847656 L 194.785156 352.847656 C 195.421875 352.847656 196.074219 352.847656 196.710938 352.753906 L 197.441406 352.753906 C 198.058594 352.753906 198.679688 352.710938 199.308594 352.617188 L 200.292969 352.542969 L 201.8125 352.390625 L 203.132812 352.238281 L 204.285156 352.085938 L 205.800781 351.875 L 206.699219 351.738281 L 208.398438 351.449219 L 209.246094 351.296875 L 210.871094 350.996094 L 212.011719 350.75 L 213.390625 350.492188 L 215.484375 349.992188 L 215.636719 349.992188 C 221.734375 348.445312 227.628906 346.328125 233.316406 343.648438 C 255.582031 333.144531 271.835938 316.601562 282.71875 294.597656 C 285.421875 289.101562 281.703125 283.851562 276.527344 281.789062 C 268.484375 278.554688 259.117188 278.753906 250.816406 280.816406 C 247.898438 281.554688 245.144531 282.699219 242.5625 284.246094 C 237.144531 287.449219 232.742188 291.988281 227.914062 295.964844 C 222.847656 300.210938 217.253906 303.578125 211.128906 306.070312 C 208.160156 307.210938 205.121094 308.09375 202.003906 308.722656 C 198.886719 309.351562 195.738281 309.714844 192.5625 309.816406 C 189.382812 309.917969 186.222656 309.753906 183.070312 309.324219 C 179.921875 308.890625 176.828125 308.203125 173.792969 307.253906 C 151.152344 300.53125 137.113281 284.792969 132.621094 261.328125 C 131.910156 257.882812 131.535156 254.394531 131.5 250.875 C 131.464844 247.355469 131.765625 243.863281 132.402344 240.402344 C 133.042969 236.9375 134.007812 233.570312 135.296875 230.292969 C 136.585938 227.019531 138.179688 223.898438 140.070312 220.929688 C 150.90625 203.550781 166.570312 193.867188 187.105469 192.652344 Z M 187.105469 192.652344 " fill-opacity="1" fill-rule="nonzero"/></g></svg>