<svg xmlns="http://www.w3.org/2000/svg" width="500" height="500" version="1.0" viewBox="0 0 375 375"><defs><clipPath id="a"><path d="M88 16.602h199V353H88Zm0 0"/></clipPath></defs><path fill="#fff" d="M219.035 251.57q.001 1.383-.133 2.754a28 28 0 0 1-.406 2.727q-.27 1.352-.668 2.676a27.91 27.91 0 0 1-2.11 5.086 28 28 0 0 1-3.058 4.578c-.582.71-1.2 1.394-1.851 2.043a28 28 0 0 1-2.043 1.851q-1.067.878-2.215 1.645c-.766.511-1.551.98-2.363 1.418-.813.433-1.641.824-2.493 1.175q-1.275.53-2.597.93-1.32.4-2.672.672a28.259 28.259 0 0 1-5.48.54q-1.384-.002-2.755-.138a29 29 0 0 1-2.726-.402 29 29 0 0 1-2.676-.672 28 28 0 0 1-2.594-.93 27 27 0 0 1-2.492-1.175 29 29 0 0 1-2.367-1.418 28 28 0 0 1-2.215-1.645q-1.065-.874-2.039-1.851a27 27 0 0 1-1.852-2.043 27.875 27.875 0 0 1-4.238-7.07 27 27 0 0 1-.93-2.594 27.6 27.6 0 0 1-1.074-5.403 28 28 0 0 1-.136-2.754 28.3 28.3 0 0 1 1.21-8.156q.398-1.317.93-2.594a27.9 27.9 0 0 1 6.09-9.113 27 27 0 0 1 2.04-1.852 28 28 0 0 1 2.214-1.644q1.149-.763 2.367-1.414 1.214-.651 2.492-1.18a27.7 27.7 0 0 1 5.27-1.597 28 28 0 0 1 5.48-.543 28.3 28.3 0 0 1 5.48.543q1.355.27 2.673.667a27.91 27.91 0 0 1 5.09 2.11q1.216.65 2.363 1.414a28 28 0 0 1 2.215 1.644q1.064.874 2.043 1.852c.652.648 1.27 1.332 1.851 2.043.582.71 1.133 1.45 1.64 2.215q.768 1.143 1.419 2.363a28 28 0 0 1 2.11 5.086q.397 1.324.667 2.676.27 1.354.406 2.726.134 1.377.133 2.754m0 0"/><g clip-path="url(#a)"><path fill="#fff" d="M187.105 192.652a56.4 56.4 0 0 1 11.477.38 56.2 56.2 0 0 1 11.16 2.69 56.3 56.3 0 0 1 10.387 4.895 56.4 56.4 0 0 1 9.184 6.895c.53.457 1.03.925 1.515 1.41l.137.137 1.004.957c4.46 4.386 8.437 9.289 13.55 12.96a30.4 30.4 0 0 0 7.922 4.145 52.6 52.6 0 0 0 9.305 2.246 37.8 37.8 0 0 0 16.39-.957c5.344-1.61 9.364-6.375 7.255-12.14a101 101 0 0 0-8.66-17.926 101.2 101.2 0 0 0-11.997-15.89 101.396 101.396 0 0 0-45.195-28.348l-.394-.137q.685-.657 1.44-1.23c10.017-8.005 20.04-15.985 30.067-23.95 8.938-7.117 17.938-14.176 26.774-21.414 7.101-5.812 9.422-13.492 7.148-22.266-3.965-15.312-22.07-21.02-34.726-11.03a7597 7597 0 0 0-59.98 47.245c-1.016.801-2.063 1.516-3.036 2.383-.469.3-.82.133-.695-.41q.082-.245.195-.473 9.362-19.347 18.684-38.672c5.933-12.261 11.898-24.507 17.71-36.832q.698-1.442 1.169-2.972.473-1.53.707-3.114.238-1.583.23-3.183a21.264 21.264 0 0 0-.988-6.293 21 21 0 0 0-1.196-2.961 22 22 0 0 0-1.628-2.746 21 21 0 0 0-2.028-2.469 21.22 21.22 0 0 0-10.836-6.414 21.283 21.283 0 0 0-9.508-.078q-1.564.346-3.058.922c-6.07 2.261-10.016 6.77-12.793 12.492a33130 33130 0 0 1-36 74.02c-.563 1.167-1.184 2.32-1.777 3.472q-.102.206-.32.14-.219-.064-.196-.292c0-.41 0-.68.094-1.074.847-8.426 1.894-16.817 2.761-25.243q.963-6.035.758-12.14a22 22 0 0 0-.699-3.711 21.4 21.4 0 0 0-1.328-3.535 21.6 21.6 0 0 0-4.363-6.133 21.7 21.7 0 0 0-2.907-2.41 22 22 0 0 0-3.28-1.875 22 22 0 0 0-3.552-1.282 22 22 0 0 0-3.722-.648 21.7 21.7 0 0 0-7.723.793 21.475 21.475 0 0 0-6.937 3.492q-1.56 1.178-2.883 2.621a21.672 21.672 0 0 0-4.121 6.582 21.4 21.4 0 0 0-1.102 3.739c-1.336 8.148-2.078 16.39-3.035 24.617-1.52 13.55-2.852 27.12-4.324 40.687-1.7 15.754-3.461 31.508-5.192 47.262-1.304 12.05-2.43 24.133-3.93 36.152a232.2 232.2 0 0 0-1.351 45.742c.836 10.817 3.555 21.137 8.148 30.961 11.598 25.211 30.25 43.223 56.036 53.59a99.6 99.6 0 0 0 18.636 5.254 99.7 99.7 0 0 0 19.305 1.563h3.992c.637 0 1.29 0 1.926-.094h.73q.926.002 1.868-.137l.984-.074 1.52-.152 1.32-.153 1.152-.152 1.516-.211.898-.137 1.7-.289.847-.152 1.625-.3 1.14-.247 1.38-.258 2.093-.5h.153a98 98 0 0 0 17.68-6.344c22.265-10.503 38.519-27.046 49.402-49.05 2.703-5.496-1.016-10.746-6.192-12.809-8.043-3.234-17.41-3.035-25.71-.973a30.6 30.6 0 0 0-8.255 3.43c-5.417 3.203-9.82 7.742-14.648 11.719a62.8 62.8 0 0 1-16.785 10.105 56.852 56.852 0 0 1-37.336 1.184c-22.64-6.723-36.68-22.461-41.172-45.926a54.3 54.3 0 0 1-1.121-10.453q-.052-5.28.902-10.473a54.7 54.7 0 0 1 7.668-19.472c10.836-17.38 26.5-27.063 47.035-28.278m0 0"/></g></svg>