<svg xmlns="http://www.w3.org/2000/svg" xmlns:xlink="http://www.w3.org/1999/xlink" width="300" zoomAndPan="magnify" viewBox="0 0 224.87999 225" height="300" preserveAspectRatio="xMidYMid meet" version="1.0"><defs><clipPath id="ab3004a551"><path d="M 3 3.03125 L 221.855469 3.03125 L 221.855469 221.914062 L 3 221.914062 Z M 3 3.03125 " clip-rule="nonzero"/></clipPath></defs><g clip-path="url(#ab3004a551)"><path fill="currentColor" d="M 218.476562 111.976562 C 217.941406 111.789062 217.390625 111.691406 216.824219 111.679688 C 216.253906 111.671875 215.699219 111.75 215.160156 111.917969 C 214.617188 112.085938 214.117188 112.335938 213.652344 112.664062 C 213.191406 112.992188 212.792969 113.386719 212.457031 113.84375 C 211.6875 114.894531 210.890625 115.925781 210.0625 116.933594 C 209.234375 117.941406 208.382812 118.929688 207.503906 119.890625 C 206.625 120.855469 205.71875 121.792969 204.789062 122.707031 C 203.859375 123.621094 202.90625 124.507812 201.925781 125.371094 C 200.949219 126.234375 199.949219 127.070312 198.925781 127.878906 C 197.902344 128.6875 196.859375 129.464844 195.792969 130.21875 C 194.730469 130.972656 193.644531 131.695312 192.539062 132.386719 C 191.4375 133.082031 190.316406 133.746094 189.175781 134.378906 C 188.035156 135.011719 186.878906 135.617188 185.707031 136.1875 C 184.535156 136.757812 183.347656 137.296875 182.148438 137.804688 C 180.945312 138.3125 179.734375 138.785156 178.507812 139.230469 C 177.28125 139.671875 176.042969 140.078125 174.792969 140.453125 C 173.542969 140.832031 172.285156 141.171875 171.019531 141.480469 C 169.753906 141.785156 168.476562 142.058594 167.195312 142.300781 C 165.914062 142.539062 164.625 142.742188 163.332031 142.914062 C 162.042969 143.082031 160.746094 143.214844 159.445312 143.316406 C 158.144531 143.417969 156.84375 143.480469 155.539062 143.511719 C 154.234375 143.539062 152.933594 143.535156 151.628906 143.496094 C 150.324219 143.453125 149.023438 143.378906 147.726562 143.269531 C 146.425781 143.15625 145.128906 143.011719 143.839844 142.832031 C 142.546875 142.652344 141.261719 142.4375 139.980469 142.1875 C 138.703125 141.9375 137.429688 141.652344 136.164062 141.335938 C 134.902344 141.015625 133.644531 140.664062 132.402344 140.28125 C 131.15625 139.894531 129.921875 139.476562 128.699219 139.023438 C 127.476562 138.570312 126.265625 138.085938 125.066406 137.570312 C 123.871094 137.050781 122.6875 136.503906 121.523438 135.921875 C 120.355469 135.339844 119.203125 134.726562 118.070312 134.085938 C 116.933594 133.441406 115.820312 132.769531 114.71875 132.066406 C 113.621094 131.363281 112.542969 130.628906 111.484375 129.871094 C 110.425781 129.109375 109.390625 128.320312 108.375 127.503906 C 107.355469 126.683594 106.363281 125.839844 105.394531 124.972656 C 104.421875 124.101562 103.476562 123.203125 102.554688 122.28125 C 101.628906 121.359375 100.734375 120.414062 99.863281 119.445312 C 98.992188 118.476562 98.144531 117.484375 97.328125 116.46875 C 96.507812 115.453125 95.71875 114.414062 94.957031 113.359375 C 94.195312 112.300781 93.460938 111.222656 92.757812 110.125 C 92.054688 109.027344 91.378906 107.914062 90.734375 106.777344 C 90.089844 105.644531 89.476562 104.496094 88.894531 103.328125 C 88.3125 102.160156 87.761719 100.980469 87.242188 99.785156 C 86.726562 98.585938 86.238281 97.378906 85.785156 96.15625 C 85.332031 94.933594 84.914062 93.699219 84.527344 92.453125 C 84.136719 91.207031 83.785156 89.953125 83.464844 88.6875 C 83.148438 87.425781 82.863281 86.152344 82.609375 84.875 C 82.359375 83.59375 82.144531 82.308594 81.960938 81.015625 C 81.78125 79.726562 81.632812 78.429688 81.523438 77.132812 C 81.410156 75.832031 81.332031 74.53125 81.289062 73.230469 C 81.25 71.925781 81.242188 70.621094 81.269531 69.316406 C 81.300781 68.015625 81.363281 66.710938 81.460938 65.414062 C 81.558594 64.113281 81.691406 62.816406 81.859375 61.523438 C 82.03125 60.230469 82.234375 58.941406 82.46875 57.660156 C 82.707031 56.378906 82.980469 55.101562 83.285156 53.835938 C 83.59375 52.570312 83.933594 51.308594 84.308594 50.0625 C 84.679688 48.8125 85.089844 47.574219 85.527344 46.347656 C 85.96875 45.121094 86.445312 43.90625 86.949219 42.703125 C 87.457031 41.503906 87.992188 40.316406 88.5625 39.140625 C 89.132812 37.96875 89.734375 36.8125 90.367188 35.671875 C 91 34.53125 91.664062 33.410156 92.355469 32.304688 C 93.046875 31.199219 93.769531 30.117188 94.523438 29.050781 C 95.273438 27.984375 96.050781 26.941406 96.859375 25.914062 C 97.667969 24.890625 98.503906 23.890625 99.363281 22.910156 C 100.226562 21.933594 101.113281 20.976562 102.023438 20.046875 C 102.9375 19.117188 103.875 18.210938 104.835938 17.328125 C 105.800781 16.449219 106.785156 15.59375 107.792969 14.769531 C 108.800781 13.941406 109.828125 13.140625 110.878906 12.367188 C 111.359375 12.0625 111.773438 11.6875 112.125 11.242188 C 112.476562 10.796875 112.75 10.304688 112.9375 9.769531 C 113.125 9.234375 113.21875 8.679688 113.222656 8.113281 C 113.226562 7.546875 113.136719 6.992188 112.953125 6.453125 C 112.765625 5.9375 112.503906 5.460938 112.164062 5.023438 C 111.828125 4.589844 111.429688 4.21875 110.972656 3.910156 C 110.515625 3.601562 110.019531 3.375 109.492188 3.222656 C 108.960938 3.074219 108.421875 3.007812 107.871094 3.03125 C 106.121094 3.113281 104.375 3.234375 102.632812 3.402344 C 100.890625 3.566406 99.152344 3.773438 97.417969 4.023438 C 95.683594 4.273438 93.957031 4.566406 92.238281 4.898438 C 90.519531 5.230469 88.808594 5.605469 87.109375 6.019531 C 85.40625 6.433594 83.71875 6.890625 82.039062 7.386719 C 80.359375 7.882812 78.695312 8.417969 77.039062 8.992188 C 75.386719 9.570312 73.75 10.1875 72.125 10.839844 C 70.5 11.496094 68.894531 12.191406 67.304688 12.921875 C 65.714844 13.65625 64.140625 14.425781 62.589844 15.234375 C 61.035156 16.042969 59.5 16.886719 57.988281 17.769531 C 56.476562 18.652344 54.984375 19.570312 53.519531 20.523438 C 52.050781 21.476562 50.605469 22.464844 49.183594 23.488281 C 47.761719 24.511719 46.367188 25.566406 44.996094 26.660156 C 43.628906 27.75 42.285156 28.871094 40.96875 30.027344 C 39.652344 31.179688 38.363281 32.367188 37.105469 33.585938 C 35.847656 34.800781 34.617188 36.046875 33.417969 37.324219 C 32.21875 38.601562 31.054688 39.902344 29.917969 41.234375 C 28.78125 42.566406 27.675781 43.925781 26.605469 45.3125 C 25.535156 46.699219 24.5 48.109375 23.496094 49.542969 C 22.492188 50.980469 21.523438 52.4375 20.59375 53.917969 C 19.660156 55.402344 18.761719 56.902344 17.902344 58.429688 C 17.042969 59.953125 16.21875 61.5 15.433594 63.0625 C 14.648438 64.628906 13.898438 66.210938 13.1875 67.8125 C 12.480469 69.410156 11.808594 71.027344 11.175781 72.660156 C 10.542969 74.292969 9.953125 75.941406 9.398438 77.601562 C 8.847656 79.265625 8.332031 80.9375 7.859375 82.625 C 7.390625 84.308594 6.957031 86.007812 6.566406 87.714844 C 6.175781 89.421875 5.828125 91.136719 5.519531 92.859375 C 5.210938 94.582031 4.945312 96.3125 4.71875 98.050781 C 4.496094 99.785156 4.3125 101.527344 4.171875 103.269531 C 4.03125 105.015625 3.929688 106.765625 3.875 108.515625 C 3.816406 110.265625 3.800781 112.015625 3.828125 113.765625 C 3.855469 115.515625 3.925781 117.265625 4.039062 119.011719 C 4.148438 120.761719 4.300781 122.503906 4.496094 124.242188 C 4.691406 125.984375 4.929688 127.71875 5.207031 129.445312 C 5.488281 131.175781 5.808594 132.894531 6.167969 134.609375 C 6.53125 136.324219 6.933594 138.027344 7.378906 139.71875 C 7.820312 141.414062 8.304688 143.09375 8.828125 144.765625 C 9.355469 146.4375 9.917969 148.09375 10.523438 149.738281 C 11.128906 151.378906 11.769531 153.007812 12.453125 154.621094 C 13.136719 156.234375 13.855469 157.828125 14.617188 159.40625 C 15.375 160.984375 16.171875 162.542969 17.007812 164.082031 C 17.839844 165.621094 18.710938 167.140625 19.621094 168.636719 C 20.527344 170.132812 21.46875 171.609375 22.449219 173.0625 C 23.425781 174.511719 24.441406 175.941406 25.488281 177.34375 C 26.535156 178.746094 27.613281 180.125 28.726562 181.476562 C 29.839844 182.828125 30.988281 184.152344 32.164062 185.445312 C 33.339844 186.742188 34.546875 188.011719 35.785156 189.25 C 37.023438 190.488281 38.292969 191.695312 39.585938 192.871094 C 40.882812 194.046875 42.207031 195.195312 43.558594 196.308594 C 44.910156 197.421875 46.289062 198.5 47.691406 199.546875 C 49.09375 200.59375 50.523438 201.609375 51.972656 202.585938 C 53.425781 203.566406 54.902344 204.507812 56.398438 205.414062 C 57.894531 206.324219 59.414062 207.191406 60.953125 208.027344 C 62.492188 208.863281 64.050781 209.660156 65.628906 210.417969 C 67.207031 211.179688 68.800781 211.898438 70.414062 212.582031 C 72.027344 213.265625 73.65625 213.90625 75.296875 214.511719 C 76.941406 215.117188 78.597656 215.679688 80.269531 216.207031 C 81.9375 216.730469 83.621094 217.214844 85.316406 217.65625 C 87.007812 218.101562 88.710938 218.503906 90.425781 218.863281 C 92.140625 219.226562 93.859375 219.546875 95.589844 219.824219 C 97.316406 220.105469 99.050781 220.34375 100.792969 220.539062 C 102.53125 220.734375 104.273438 220.886719 106.023438 220.996094 C 107.769531 221.109375 109.519531 221.179688 111.269531 221.207031 C 113.019531 221.234375 114.769531 221.21875 116.519531 221.160156 C 118.269531 221.105469 120.019531 221.003906 121.761719 220.863281 C 123.507812 220.722656 125.25 220.539062 126.984375 220.316406 C 128.722656 220.089844 130.453125 219.824219 132.175781 219.515625 C 133.898438 219.207031 135.613281 218.859375 137.320312 218.46875 C 139.027344 218.078125 140.726562 217.644531 142.410156 217.171875 C 144.097656 216.699219 145.769531 216.1875 147.433594 215.636719 C 149.09375 215.082031 150.742188 214.492188 152.375 213.859375 C 154.007812 213.226562 155.621094 212.554688 157.222656 211.84375 C 158.824219 211.136719 160.40625 210.386719 161.972656 209.601562 C 163.535156 208.816406 165.082031 207.992188 166.605469 207.132812 C 168.128906 206.273438 169.632812 205.375 171.117188 204.441406 C 172.597656 203.507812 174.054688 202.542969 175.492188 201.539062 C 176.925781 200.535156 178.335938 199.5 179.722656 198.429688 C 181.109375 197.359375 182.464844 196.253906 183.796875 195.117188 C 185.132812 193.980469 186.433594 192.8125 187.710938 191.617188 C 188.988281 190.417969 190.234375 189.1875 191.449219 187.929688 C 192.667969 186.667969 193.851562 185.382812 195.007812 184.066406 C 196.164062 182.75 197.285156 181.40625 198.375 180.039062 C 199.464844 178.667969 200.523438 177.273438 201.546875 175.851562 C 202.570312 174.429688 203.558594 172.984375 204.511719 171.515625 C 205.464844 170.046875 206.382812 168.558594 207.265625 167.046875 C 208.148438 165.53125 208.992188 164 209.800781 162.445312 C 210.609375 160.894531 211.378906 159.320312 212.113281 157.730469 C 212.84375 156.140625 213.539062 154.535156 214.191406 152.910156 C 214.847656 151.285156 215.464844 149.648438 216.039062 147.996094 C 216.617188 146.339844 217.152344 144.675781 217.648438 142.996094 C 218.144531 141.316406 218.601562 139.625 219.015625 137.925781 C 219.429688 136.222656 219.804688 134.515625 220.136719 132.796875 C 220.46875 131.074219 220.761719 129.351562 221.011719 127.617188 C 221.257812 125.882812 221.46875 124.144531 221.632812 122.402344 C 221.796875 120.660156 221.921875 118.914062 222.003906 117.164062 C 222.035156 116.597656 221.972656 116.042969 221.820312 115.496094 C 221.667969 114.953125 221.433594 114.445312 221.113281 113.976562 C 220.792969 113.507812 220.410156 113.101562 219.957031 112.761719 C 219.507812 112.417969 219.011719 112.15625 218.476562 111.976562 Z M 112.953125 210.753906 C 111.449219 210.75 109.949219 210.710938 108.445312 210.636719 C 106.945312 210.5625 105.445312 210.453125 103.945312 210.308594 C 102.449219 210.167969 100.957031 209.992188 99.46875 209.78125 C 97.980469 209.570312 96.496094 209.324219 95.015625 209.046875 C 93.539062 208.769531 92.070312 208.457031 90.605469 208.109375 C 89.140625 207.765625 87.6875 207.386719 86.242188 206.972656 C 84.792969 206.5625 83.359375 206.117188 81.933594 205.636719 C 80.507812 205.160156 79.09375 204.652344 77.6875 204.109375 C 76.285156 203.566406 74.898438 202.992188 73.519531 202.386719 C 72.144531 201.78125 70.78125 201.144531 69.433594 200.476562 C 68.085938 199.808594 66.757812 199.109375 65.441406 198.378906 C 64.125 197.652344 62.828125 196.894531 61.546875 196.105469 C 60.265625 195.316406 59.003906 194.5 57.761719 193.652344 C 56.515625 192.808594 55.292969 191.933594 54.089844 191.03125 C 52.886719 190.132812 51.703125 189.203125 50.542969 188.246094 C 49.382812 187.292969 48.242188 186.308594 47.125 185.300781 C 46.011719 184.292969 44.917969 183.261719 43.847656 182.203125 C 42.777344 181.144531 41.734375 180.066406 40.714844 178.960938 C 39.695312 177.855469 38.699219 176.726562 37.734375 175.574219 C 36.765625 174.425781 35.824219 173.253906 34.90625 172.058594 C 33.992188 170.867188 33.105469 169.652344 32.246094 168.417969 C 31.386719 167.183594 30.558594 165.929688 29.753906 164.65625 C 28.953125 163.386719 28.179688 162.097656 27.4375 160.789062 C 26.695312 159.480469 25.980469 158.15625 25.296875 156.816406 C 24.617188 155.476562 23.964844 154.125 23.34375 152.753906 C 22.722656 151.382812 22.132812 150 21.574219 148.605469 C 21.019531 147.207031 20.492188 145.796875 20 144.378906 C 19.507812 142.957031 19.046875 141.527344 18.617188 140.085938 C 18.191406 138.644531 17.796875 137.191406 17.433594 135.730469 C 17.070312 134.273438 16.742188 132.804688 16.449219 131.332031 C 16.152344 129.855469 15.894531 128.375 15.667969 126.886719 C 15.4375 125.402344 15.246094 123.910156 15.085938 122.414062 C 14.929688 120.921875 14.804688 119.421875 14.714844 117.921875 C 14.621094 116.417969 14.566406 114.917969 14.542969 113.414062 C 14.523438 111.910156 14.535156 110.40625 14.582031 108.902344 C 14.628906 107.398438 14.710938 105.898438 14.824219 104.398438 C 14.941406 102.898438 15.089844 101.402344 15.273438 99.910156 C 15.457031 98.417969 15.675781 96.929688 15.925781 95.449219 C 16.179688 93.964844 16.464844 92.488281 16.78125 91.019531 C 17.101562 89.550781 17.453125 88.089844 17.839844 86.636719 C 18.226562 85.183594 18.644531 83.738281 19.097656 82.304688 C 19.546875 80.871094 20.03125 79.445312 20.550781 78.035156 C 21.066406 76.621094 21.613281 75.222656 22.195312 73.835938 C 22.777344 72.449219 23.386719 71.074219 24.03125 69.714844 C 24.675781 68.355469 25.347656 67.011719 26.054688 65.683594 C 26.757812 64.355469 27.492188 63.042969 28.257812 61.75 C 29.023438 60.453125 29.816406 59.175781 30.640625 57.917969 C 31.464844 56.660156 32.316406 55.421875 33.195312 54.199219 C 34.074219 52.980469 34.980469 51.78125 35.914062 50.601562 C 36.847656 49.425781 37.808594 48.269531 38.796875 47.132812 C 39.785156 46 40.796875 44.886719 41.835938 43.800781 C 42.875 42.710938 43.933594 41.648438 45.023438 40.609375 C 46.109375 39.570312 47.21875 38.554688 48.351562 37.566406 C 49.484375 36.578125 50.640625 35.613281 51.816406 34.675781 C 52.992188 33.742188 54.191406 32.832031 55.410156 31.949219 C 56.628906 31.070312 57.863281 30.214844 59.121094 29.390625 C 60.378906 28.566406 61.65625 27.769531 62.949219 27.003906 C 64.242188 26.238281 65.554688 25.5 66.878906 24.792969 C 68.207031 24.085938 69.550781 23.410156 70.910156 22.765625 C 72.265625 22.117188 73.640625 21.503906 75.027344 20.921875 C 76.410156 20.339844 77.8125 19.789062 79.222656 19.269531 C 80.632812 18.75 82.054688 18.261719 83.488281 17.808594 C 84.921875 17.355469 86.367188 16.933594 87.820312 16.546875 C 89.273438 16.15625 90.734375 15.804688 92.203125 15.480469 C 91.320312 16.457031 90.460938 17.453125 89.621094 18.46875 C 88.785156 19.484375 87.976562 20.519531 87.1875 21.574219 C 86.402344 22.628906 85.640625 23.703125 84.902344 24.792969 C 84.167969 25.882812 83.457031 26.992188 82.773438 28.117188 C 82.089844 29.238281 81.4375 30.378906 80.804688 31.535156 C 80.175781 32.691406 79.578125 33.863281 79.003906 35.046875 C 78.429688 36.230469 77.882812 37.429688 77.367188 38.636719 C 76.851562 39.847656 76.363281 41.070312 75.90625 42.304688 C 75.449219 43.539062 75.019531 44.78125 74.621094 46.035156 C 74.21875 47.289062 73.851562 48.550781 73.511719 49.824219 C 73.171875 51.09375 72.863281 52.371094 72.585938 53.660156 C 72.308594 54.945312 72.058594 56.238281 71.84375 57.535156 C 71.625 58.832031 71.441406 60.136719 71.285156 61.441406 C 71.128906 62.75 71.007812 64.058594 70.914062 65.371094 C 70.820312 66.683594 70.761719 67.996094 70.730469 69.3125 C 70.699219 70.628906 70.699219 71.945312 70.734375 73.257812 C 70.765625 74.574219 70.828125 75.890625 70.925781 77.203125 C 71.019531 78.515625 71.144531 79.824219 71.300781 81.128906 C 71.460938 82.4375 71.648438 83.738281 71.867188 85.035156 C 72.085938 86.332031 72.335938 87.625 72.617188 88.910156 C 72.894531 90.195312 73.207031 91.472656 73.546875 92.746094 C 73.890625 94.015625 74.261719 95.277344 74.664062 96.53125 C 75.0625 97.785156 75.496094 99.027344 75.953125 100.261719 C 76.414062 101.492188 76.90625 102.714844 77.421875 103.921875 C 77.941406 105.132812 78.488281 106.328125 79.0625 107.511719 C 79.640625 108.695312 80.242188 109.863281 80.875 111.019531 C 81.503906 112.175781 82.164062 113.3125 82.847656 114.4375 C 83.53125 115.558594 84.246094 116.667969 84.980469 117.757812 C 85.71875 118.847656 86.484375 119.917969 87.273438 120.96875 C 88.0625 122.023438 88.875 123.058594 89.710938 124.074219 C 90.550781 125.085938 91.410156 126.082031 92.296875 127.054688 C 93.183594 128.027344 94.089844 128.980469 95.019531 129.910156 C 95.949219 130.839844 96.902344 131.75 97.875 132.632812 C 98.851562 133.519531 99.84375 134.382812 100.859375 135.21875 C 101.875 136.058594 102.90625 136.871094 103.960938 137.660156 C 105.011719 138.449219 106.085938 139.210938 107.175781 139.949219 C 108.265625 140.6875 109.371094 141.398438 110.496094 142.082031 C 111.617188 142.769531 112.757812 143.425781 113.910156 144.058594 C 115.066406 144.6875 116.234375 145.292969 117.417969 145.867188 C 118.601562 146.441406 119.796875 146.988281 121.007812 147.507812 C 122.21875 148.027344 123.4375 148.515625 124.671875 148.976562 C 125.902344 149.4375 127.148438 149.867188 128.398438 150.269531 C 129.652344 150.671875 130.914062 151.042969 132.1875 151.382812 C 133.457031 151.722656 134.734375 152.035156 136.019531 152.316406 C 137.304688 152.59375 138.597656 152.84375 139.894531 153.066406 C 141.191406 153.285156 142.496094 153.472656 143.800781 153.628906 C 145.109375 153.785156 146.417969 153.910156 147.730469 154.007812 C 149.042969 154.101562 150.355469 154.164062 151.671875 154.199219 C 152.988281 154.230469 154.300781 154.230469 155.617188 154.199219 C 156.933594 154.171875 158.246094 154.109375 159.558594 154.015625 C 160.871094 153.925781 162.183594 153.800781 163.488281 153.644531 C 164.796875 153.492188 166.097656 153.304688 167.394531 153.085938 C 168.695312 152.871094 169.984375 152.625 171.273438 152.34375 C 172.558594 152.066406 173.835938 151.757812 175.109375 151.417969 C 176.378906 151.078125 177.640625 150.710938 178.894531 150.3125 C 180.148438 149.910156 181.394531 149.484375 182.628906 149.023438 C 183.859375 148.566406 185.082031 148.078125 186.292969 147.5625 C 187.503906 147.046875 188.699219 146.5 189.882812 145.929688 C 191.070312 145.355469 192.238281 144.753906 193.394531 144.125 C 194.550781 143.496094 195.691406 142.839844 196.816406 142.15625 C 197.941406 141.472656 199.046875 140.761719 200.136719 140.027344 C 201.230469 139.292969 202.300781 138.53125 203.355469 137.742188 C 204.410156 136.957031 205.445312 136.144531 206.460938 135.308594 C 207.480469 134.472656 208.472656 133.613281 209.449219 132.726562 C 208.867188 135.464844 208.171875 138.175781 207.359375 140.851562 C 206.546875 143.53125 205.625 146.167969 204.585938 148.769531 C 203.550781 151.367188 202.40625 153.917969 201.148438 156.421875 C 199.894531 158.921875 198.539062 161.367188 197.074219 163.753906 C 195.613281 166.140625 194.050781 168.457031 192.390625 170.710938 C 190.730469 172.964844 188.976562 175.140625 187.128906 177.246094 C 185.285156 179.347656 183.351562 181.371094 181.332031 183.308594 C 179.3125 185.246094 177.214844 187.09375 175.039062 188.855469 C 172.863281 190.613281 170.617188 192.277344 168.296875 193.847656 C 165.980469 195.414062 163.601562 196.882812 161.15625 198.246094 C 158.714844 199.613281 156.214844 200.871094 153.667969 202.023438 C 151.117188 203.175781 148.519531 204.214844 145.882812 205.148438 C 143.242188 206.078125 140.566406 206.894531 137.859375 207.597656 C 135.148438 208.300781 132.417969 208.886719 129.65625 209.355469 C 126.898438 209.828125 124.125 210.179688 121.335938 210.410156 C 118.546875 210.644531 115.753906 210.757812 112.953125 210.753906 Z M 112.953125 210.753906 " fill-opacity="1" fill-rule="nonzero"/></g></svg>